<svg width="36" height="35" viewBox="0 0 36 35" fill="none" xmlns="http://www.w3.org/2000/svg">
<path d="M19.0023 2.91812C20.0665 2.91403 21.1307 2.92473 22.1946 2.9502L22.4775 2.96041C22.8042 2.97207 23.1265 2.98666 23.5158 3.00416C25.0675 3.07707 26.1262 3.32207 27.0552 3.68228C28.0177 4.0527 28.8285 4.55437 29.6394 5.3652C30.3807 6.09379 30.9545 6.97512 31.3208 7.94791C31.681 8.87687 31.926 9.93707 31.999 11.4887C32.0165 11.8767 32.031 12.2004 32.0427 12.5271L32.0515 12.81C32.0774 13.8734 32.0885 14.9371 32.085 16.0008L32.0865 17.0887V18.9992C32.09 20.0634 32.0789 21.1276 32.0529 22.1915L32.0442 22.4744C32.0325 22.801 32.0179 23.1233 32.0004 23.5127C31.9275 25.0644 31.6796 26.1231 31.3208 27.0521C30.9557 28.0259 30.3818 28.9079 29.6394 29.6362C28.9102 30.3775 28.0284 30.9513 27.0552 31.3177C26.1262 31.6779 25.0675 31.9229 23.5158 31.9958C23.1265 32.0133 22.8042 32.0279 22.4775 32.0396L22.1946 32.0483C21.1307 32.0742 20.0665 32.0854 19.0023 32.0819L17.9144 32.0833H16.0054C14.9412 32.0869 13.877 32.0757 12.8131 32.0498L12.5302 32.041C12.184 32.0285 11.8379 32.0139 11.4919 31.9973C9.9402 31.9244 8.88145 31.6765 7.95104 31.3177C6.97787 30.9522 6.09638 30.3783 5.36833 29.6362C4.6261 28.9075 4.05178 28.0256 3.68541 27.0521C3.3252 26.1231 3.0802 25.0644 3.00729 23.5127C2.99105 23.1667 2.97646 22.8205 2.96354 22.4744L2.95625 22.1915C2.92936 21.1276 2.9172 20.0634 2.91979 18.9992V16.0008C2.91572 14.9371 2.92641 13.8734 2.95187 12.81L2.96208 12.5271C2.97375 12.2004 2.98833 11.8767 3.00583 11.4887C3.07875 9.93561 3.32374 8.87832 3.68395 7.94791C4.05054 6.97464 4.62598 6.09356 5.36979 5.36666C6.09734 4.624 6.97827 4.04916 7.95104 3.68228C8.88145 3.32207 9.93875 3.07707 11.4919 3.00416L12.5302 2.96041L12.8131 2.95312C13.8765 2.92624 14.9402 2.91409 16.004 2.91666L19.0023 2.91812ZM17.5031 10.2098C16.537 10.1961 15.5778 10.3746 14.6812 10.7349C13.7847 11.0952 12.9686 11.63 12.2806 12.3084C11.5926 12.9868 11.0462 13.7951 10.6733 14.6865C10.3004 15.5779 10.1083 16.5345 10.1083 17.5007C10.1083 18.467 10.3004 19.4236 10.6733 20.3149C11.0462 21.2063 11.5926 22.0147 12.2806 22.693C12.9686 23.3714 13.7847 23.9063 14.6812 24.2666C15.5778 24.6268 16.537 24.8053 17.5031 24.7917C19.437 24.7917 21.2917 24.0234 22.6591 22.656C24.0266 21.2885 24.7948 19.4339 24.7948 17.5C24.7948 15.5661 24.0266 13.7115 22.6591 12.344C21.2917 10.9766 19.437 10.2098 17.5031 10.2098ZM17.5031 13.1264C18.0843 13.1157 18.6617 13.2209 19.2018 13.4359C19.7418 13.6509 20.2336 13.9713 20.6484 14.3785C21.0632 14.7857 21.3928 15.2714 21.6177 15.8074C21.8427 16.3433 21.9586 16.9187 21.9587 17.5C21.9588 18.0812 21.8431 18.6567 21.6183 19.1927C21.3935 19.7287 21.0641 20.2146 20.6495 20.6219C20.2348 21.0292 19.7431 21.3498 19.2031 21.565C18.6632 21.7801 18.0857 21.8855 17.5046 21.875C16.3443 21.875 15.2315 21.4141 14.411 20.5936C13.5905 19.7731 13.1296 18.6603 13.1296 17.5C13.1296 16.3397 13.5905 15.2269 14.411 14.4064C15.2315 13.5859 16.3443 13.125 17.5046 13.125L17.5031 13.1264ZM25.1594 8.02228C24.6889 8.04111 24.244 8.24125 23.9178 8.58078C23.5915 8.92031 23.4094 9.37289 23.4094 9.84374C23.4094 10.3146 23.5915 10.7672 23.9178 11.1067C24.244 11.4462 24.6889 11.6464 25.1594 11.6652C25.6428 11.6652 26.1065 11.4731 26.4484 11.1313C26.7902 10.7894 26.9823 10.3257 26.9823 9.84228C26.9823 9.35881 26.7902 8.89515 26.4484 8.55329C26.1065 8.21142 25.6428 8.01937 25.1594 8.01937V8.02228Z" fill="#B94631"/>
</svg>
