<svg width="36" height="35" viewBox="0 0 36 35" fill="none" xmlns="http://www.w3.org/2000/svg">
<path d="M27.7113 4.375C28.4848 4.375 29.2267 4.68229 29.7737 5.22927C30.3206 5.77625 30.6279 6.51812 30.6279 7.29167V27.7083C30.6279 28.4819 30.3206 29.2237 29.7737 29.7707C29.2267 30.3177 28.4848 30.625 27.7113 30.625H7.2946C6.52105 30.625 5.77918 30.3177 5.2322 29.7707C4.68522 29.2237 4.37793 28.4819 4.37793 27.7083V7.29167C4.37793 6.51812 4.68522 5.77625 5.2322 5.22927C5.77918 4.68229 6.52105 4.375 7.2946 4.375H27.7113ZM26.9821 26.9792V19.25C26.9821 17.9891 26.4812 16.7799 25.5896 15.8883C24.6981 14.9967 23.4888 14.4958 22.2279 14.4958C20.9883 14.4958 19.5446 15.2542 18.8446 16.3917V14.7729H14.7758V26.9792H18.8446V19.7896C18.8446 18.6667 19.7488 17.7479 20.8717 17.7479C21.4132 17.7479 21.9325 17.963 22.3154 18.3459C22.6982 18.7288 22.9133 19.2481 22.9133 19.7896V26.9792H26.9821ZM10.0363 12.4833C10.686 12.4833 11.3092 12.2252 11.7687 11.7657C12.2281 11.3063 12.4863 10.6831 12.4863 10.0333C12.4863 8.67708 11.3925 7.56875 10.0363 7.56875C9.38262 7.56875 8.75574 7.82841 8.29354 8.29061C7.83134 8.75281 7.57168 9.37969 7.57168 10.0333C7.57168 11.3896 8.68001 12.4833 10.0363 12.4833ZM12.0633 26.9792V14.7729H8.02376V26.9792H12.0633Z" fill="#B94631"/>
</svg>
