<svg width="36" height="35" viewBox="0 0 36 35" fill="none" xmlns="http://www.w3.org/2000/svg">
<g clip-path="url(#clip0_118_138)">
<path d="M10.9973 32.8125C24.2054 32.8125 31.4307 21.8684 31.4307 12.3944C31.4307 12.0881 31.4307 11.7775 31.4176 11.4712C32.8243 10.4529 34.0384 9.1922 35.0029 7.74812C33.6889 8.32748 32.2965 8.70932 30.8707 8.88124C32.3725 7.98357 33.4973 6.57117 34.0361 4.90655C32.6251 5.74245 31.0808 6.32924 29.4707 6.64124C28.3883 5.48848 26.956 4.72481 25.3956 4.46852C23.8352 4.21223 22.2339 4.47763 20.8396 5.2236C19.4453 5.96958 18.3359 7.15449 17.6833 8.59481C17.0306 10.0351 16.8711 11.6505 17.2295 13.1906C14.3742 13.0474 11.581 12.3057 9.03084 11.0135C6.48071 9.72128 4.23068 7.90746 2.42668 5.68968C1.51086 7.27142 1.23137 9.14243 1.64497 10.9228C2.05856 12.7031 3.13424 14.2593 4.65355 15.2753C3.51505 15.2366 2.40157 14.9309 1.40293 14.3828V14.4812C1.40489 16.1382 1.97891 17.7437 3.02797 19.0263C4.07702 20.309 5.53675 21.19 7.16043 21.5206C6.54413 21.6904 5.90749 21.775 5.26824 21.7722C4.81758 21.7735 4.36782 21.7318 3.92512 21.6475C4.38403 23.0739 5.27759 24.321 6.48066 25.2142C7.68372 26.1073 9.13604 26.6019 10.6342 26.6284C8.08914 28.6274 4.94537 29.7115 1.70918 29.7062C1.13894 29.7086 0.569105 29.6758 0.00292969 29.6078C3.28749 31.7018 7.10202 32.8137 10.9973 32.8125Z" fill="#B94631"/>
</g>
<defs>
<clipPath id="clip0_118_138">
<rect width="35" height="35" fill="white" transform="translate(0.00292969)"/>
</clipPath>
</defs>
</svg>
